<?xml version="1.0" standalone="no"?>
<!DOCTYPE svg PUBLIC "-//W3C//DTD SVG 20010904//EN"
 "http://www.w3.org/TR/2001/REC-SVG-20010904/DTD/svg10.dtd">
<svg version="1.0" xmlns="http://www.w3.org/2000/svg"
 width="16.000000pt" height="16.000000pt" viewBox="0 0 16.000000 16.000000"
 preserveAspectRatio="xMidYMid meet">
<metadata>
Created by potrace 1.11, written by Peter Selinger 2001-2013
</metadata>
<g transform="translate(0.000000,16.000000) scale(0.002286,-0.002286)"
fill="#000000" stroke="none">
<path d="M2910 3701 l0 -2774 -112 7 c-62 4 -129 9 -148 11 -19 2 -84 6 -145
10 -60 4 -126 8 -145 10 -19 1 -78 5 -130 9 -52 4 -120 9 -150 11 -30 3 -93 7
-140 10 -47 3 -110 7 -140 9 -30 3 -95 8 -145 11 -49 3 -112 8 -140 10 -27 2
-93 7 -145 10 l-95 6 76 -73 c111 -107 356 -338 400 -377 l39 -35 257 -2 c237
-2 1429 -11 2283 -19 195 -2 521 -4 725 -5 l370 -2 21 33 c11 19 36 61 54 94
18 33 37 66 43 72 7 10 4 13 -9 14 -37 1 -296 19 -344 24 -19 2 -82 6 -140 10
-58 3 -121 8 -140 10 -19 2 -83 6 -142 10 -59 3 -126 8 -150 10 -24 2 -90 7
-148 10 -58 4 -121 8 -140 10 -19 1 -84 6 -145 10 -60 4 -117 8 -126 10 -9 2
-57 5 -107 7 -50 1 -88 6 -84 9 4 4 45 10 92 13 47 4 101 9 120 11 19 3 66 7
104 10 37 2 82 7 100 9 17 3 65 8 106 11 41 3 90 8 108 10 19 2 68 7 110 10
43 4 88 8 102 10 14 2 59 7 100 10 41 3 91 8 110 10 19 2 89 9 155 15 66 6
136 13 155 15 19 2 67 7 105 10 39 3 86 8 105 10 19 2 71 7 115 11 44 5 88 9
98 10 9 1 30 2 46 3 l30 1 -33 72 c-19 40 -82 172 -141 293 -131 270 -179 368
-180 375 -1 3 -46 95 -99 205 -54 110 -115 236 -136 280 -21 44 -79 166 -130
270 -179 368 -253 521 -290 600 -21 44 -84 175 -140 290 -56 116 -126 260
-155 320 -29 61 -84 175 -123 255 -38 80 -101 210 -139 290 -100 207 -192 397
-296 610 -49 102 -109 226 -132 275 -24 50 -88 185 -144 300 -56 116 -134 277
-174 359 -40 83 -109 224 -154 315 l-81 166 -1 -2675 c0 -1471 -1 -2688 -1
-2703 l0 -29 -72 5 c-40 3 -74 6 -75 6 -2 1 -4 1251 -5 2778 l-3 2776 -57 1
-58 1 0 -2774z"/>
</g>
</svg>
